<svg fill="none" height="80" viewBox="0 0 28 80" width="28" xmlns="http://www.w3.org/2000/svg" xmlns:xlink="http://www.w3.org/1999/xlink"><clipPath id="a"><path d="m0 0h28v80h-28z"/></clipPath><g clip-path="url(#a)"><path d="m16.4 12.1c-13.7 21.1-9.8 50.6 11.1 66.5.4.4.6.9.4 1.2s-.8.3-1.2-.1c-9.9169-7.8485-16.4626-19.1874-18.3-31.7-1.9-12.6.9-25.4 8-35.9zm1.1 59.4c-2.9 2.5-8.7.4-11.6-5.4 3.5-1.7 8.2 1 11.6 5.4zm3.1-13.1c1.9 3.9 1.9 8.8-1 11.4-3.4-4.4-2.4-9.8 1-11.4zm-8.5 4.4c-3.3 2-8.5-1.2-10.2-7.4 3.7-.9 7.7 2.6 10.2 7.4zm5.7-12c1.1 4.2.1 9-3.3 10.8h-.1c-2.4-4.9-.3-9.9 3.4-10.8zm-9.2 2.7c-3.7 1.2-8.1-2.9-8.6-9.3 3.8-.2 7.1 4.1 8.6 9.3zm7.9-10.6c.3 4.3-1.7 8.7-5.4 9.9v-.1c-1.4-5.2 1.5-9.6 5.4-9.8zm-16.2-10.1c3.8.7 6.2 5.5 6.6 10.8-3.8.5-7.4-4.4-6.6-10.8zm16.4 2.1c-.6 4.3-3.3 8.1-7.1 8.6l-.1-.1c-.3-5.3 3.4-9.1 7.2-8.5zm1.7-7.8c-1.3 4.1-4.8 7.3-8.6 6.9.6-5.3 5-8.3 8.6-6.9zm-15.7-5.4c3.5 1.4 5 6.5 4.5 11.7l-.1.3h-.1c-3.7-.5-6.2-5.7-4.4-11.7zm18.9-2.1c-2.2 3.8-6.1 6.3-9.8 5.2 1.6-5.1 6.5-7.3 9.8-5.2zm-14.3-8.4c3.2 2.1 3.6 7.6 2 12.8-3.7-1.1-5.3-7.1-2-12.8zm19 1.6c-3 3.4-7.4 5.1-10.8 3.3 2.7-4.8 8.1-6 10.8-3.3zm-12.4-11.2c2.8 2.8 2 8.4-.7 13.1-3.3-1.8-3.7-8 .7-13.1zm14-1.6c-1.8 4.7-5.6 8.4-10.2 10.2 0-4.8 5.2-10.1 10.2-10.2z" fill="#403935"/></g><script xmlns=""/></svg> 
